<mxfile host="65bd71144e">
    <diagram id="ZZju-jN9Fk-AYxQa7jEs" name="Page-1">
        <mxGraphModel dx="747" dy="928" grid="1" gridSize="10" guides="1" tooltips="1" connect="1" arrows="1" fold="1" page="1" pageScale="1" pageWidth="827" pageHeight="1169" math="0" shadow="0">
            <root>
                <mxCell id="0"/>
                <mxCell id="1" parent="0"/>
                <mxCell id="2" value="&lt;h1&gt;Django Quick Deploy&lt;/h1&gt;&lt;p&gt;The Notions of Quickly deploying a Django Server&lt;/p&gt;" style="text;html=1;strokeColor=none;fillColor=none;spacing=5;spacingTop=-20;whiteSpace=wrap;overflow=hidden;rounded=0;" vertex="1" parent="1">
                    <mxGeometry x="120" y="40" width="460" height="80" as="geometry"/>
                </mxCell>
                <mxCell id="9" value="Secret Key" style="swimlane;html=1;startSize=20;horizontal=0;childLayout=flowLayout;flowOrientation=west;resizable=0;interRankCellSpacing=50;containerType=tree;fillColor=#e1d5e7;strokeColor=#9673a6;" vertex="1" parent="1">
                    <mxGeometry x="120" y="160" width="460" height="150" as="geometry"/>
                </mxCell>
                <mxCell id="10" value="SECRET_KEY in settings.py" style="whiteSpace=wrap;html=1;" vertex="1" parent="9">
                    <mxGeometry x="40" y="55" width="100" height="40" as="geometry"/>
                </mxCell>
                <mxCell id="11" value="Remove from File" style="whiteSpace=wrap;html=1;" vertex="1" parent="9">
                    <mxGeometry x="190" y="20" width="100" height="40" as="geometry"/>
                </mxCell>
                <mxCell id="12" value="" style="html=1;curved=1;noEdgeStyle=1;orthogonal=1;" edge="1" parent="9" source="10" target="11">
                    <mxGeometry relative="1" as="geometry">
                        <Array as="points">
                            <mxPoint x="152" y="67.5"/>
                            <mxPoint x="178" y="40"/>
                        </Array>
                    </mxGeometry>
                </mxCell>
                <mxCell id="13" value="Save to Other File" style="whiteSpace=wrap;html=1;" vertex="1" parent="9">
                    <mxGeometry x="190" y="90" width="100" height="40" as="geometry"/>
                </mxCell>
                <mxCell id="14" value="" style="html=1;curved=1;noEdgeStyle=1;orthogonal=1;" edge="1" parent="9" source="10" target="13">
                    <mxGeometry relative="1" as="geometry">
                        <Array as="points">
                            <mxPoint x="152" y="82.5"/>
                            <mxPoint x="178" y="110"/>
                        </Array>
                    </mxGeometry>
                </mxCell>
                <mxCell id="15" value="Keep it Secret" style="whiteSpace=wrap;html=1;" vertex="1" parent="9">
                    <mxGeometry x="340" y="55" width="100" height="40" as="geometry"/>
                </mxCell>
                <mxCell id="16" value="" style="html=1;curved=1;noEdgeStyle=1;orthogonal=1;" edge="1" parent="9" source="11" target="15">
                    <mxGeometry relative="1" as="geometry">
                        <Array as="points">
                            <mxPoint x="302" y="40"/>
                            <mxPoint x="328" y="67.5"/>
                        </Array>
                    </mxGeometry>
                </mxCell>
                <mxCell id="17" value="" style="html=1;curved=1;noEdgeStyle=1;orthogonal=1;" edge="1" parent="9" source="13" target="15">
                    <mxGeometry relative="1" as="geometry">
                        <Array as="points">
                            <mxPoint x="302" y="110"/>
                            <mxPoint x="328" y="82.5"/>
                        </Array>
                    </mxGeometry>
                </mxCell>
                <mxCell id="20" value="Templates Folder" style="swimlane;html=1;startSize=20;horizontal=0;childLayout=flowLayout;flowOrientation=west;resizable=0;interRankCellSpacing=50;containerType=tree;fillColor=#fff2cc;strokeColor=#d6b656;" vertex="1" parent="1">
                    <mxGeometry x="120" y="360" width="460" height="150" as="geometry"/>
                </mxCell>
                <mxCell id="21" value="Templates &amp;gt; DIRS in settings.py" style="whiteSpace=wrap;html=1;" vertex="1" parent="20">
                    <mxGeometry x="40" y="55" width="100" height="40" as="geometry"/>
                </mxCell>
                <mxCell id="22" value="Seperate Folder" style="whiteSpace=wrap;html=1;" vertex="1" parent="20">
                    <mxGeometry x="190" y="20" width="100" height="40" as="geometry"/>
                </mxCell>
                <mxCell id="23" value="" style="html=1;curved=1;noEdgeStyle=1;orthogonal=1;" edge="1" parent="20" source="21" target="22">
                    <mxGeometry relative="1" as="geometry">
                        <Array as="points">
                            <mxPoint x="152" y="67.5"/>
                            <mxPoint x="178" y="40"/>
                        </Array>
                    </mxGeometry>
                </mxCell>
                <mxCell id="24" value="Unchange Files, like index.html" style="whiteSpace=wrap;html=1;" vertex="1" parent="20">
                    <mxGeometry x="190" y="90" width="100" height="40" as="geometry"/>
                </mxCell>
                <mxCell id="25" value="" style="html=1;curved=1;noEdgeStyle=1;orthogonal=1;" edge="1" parent="20" source="21" target="24">
                    <mxGeometry relative="1" as="geometry">
                        <Array as="points">
                            <mxPoint x="152" y="82.5"/>
                            <mxPoint x="178" y="110"/>
                        </Array>
                    </mxGeometry>
                </mxCell>
                <mxCell id="26" value="Un-changing template files" style="whiteSpace=wrap;html=1;" vertex="1" parent="20">
                    <mxGeometry x="340" y="55" width="100" height="40" as="geometry"/>
                </mxCell>
                <mxCell id="27" value="" style="html=1;curved=1;noEdgeStyle=1;orthogonal=1;" edge="1" parent="20" source="22" target="26">
                    <mxGeometry relative="1" as="geometry">
                        <Array as="points">
                            <mxPoint x="302" y="40"/>
                            <mxPoint x="328" y="67.5"/>
                        </Array>
                    </mxGeometry>
                </mxCell>
                <mxCell id="28" value="" style="html=1;curved=1;noEdgeStyle=1;orthogonal=1;" edge="1" parent="20" source="24" target="26">
                    <mxGeometry relative="1" as="geometry">
                        <Array as="points">
                            <mxPoint x="302" y="110"/>
                            <mxPoint x="328" y="82.5"/>
                        </Array>
                    </mxGeometry>
                </mxCell>
                <mxCell id="29" value="Static Folder" style="swimlane;html=1;startSize=20;horizontal=0;childLayout=flowLayout;flowOrientation=west;resizable=0;interRankCellSpacing=50;containerType=tree;fillColor=#ffe6cc;strokeColor=#d79b00;" vertex="1" parent="1">
                    <mxGeometry x="120" y="560" width="480" height="150" as="geometry"/>
                </mxCell>
                <mxCell id="30" value="Static in settings.py" style="whiteSpace=wrap;html=1;" vertex="1" parent="29">
                    <mxGeometry x="40" y="55" width="100" height="40" as="geometry"/>
                </mxCell>
                <mxCell id="31" value="STATIC_URL" style="whiteSpace=wrap;html=1;" vertex="1" parent="29">
                    <mxGeometry x="200" y="20" width="100" height="40" as="geometry"/>
                </mxCell>
                <mxCell id="32" value="" style="html=1;curved=1;noEdgeStyle=1;orthogonal=1;" edge="1" parent="29" source="30" target="31">
                    <mxGeometry relative="1" as="geometry">
                        <Array as="points">
                            <mxPoint x="152" y="67.5"/>
                            <mxPoint x="178" y="40"/>
                        </Array>
                    </mxGeometry>
                </mxCell>
                <mxCell id="33" value="STATICFILES_DIRS" style="whiteSpace=wrap;html=1;" vertex="1" parent="29">
                    <mxGeometry x="190" y="90" width="120" height="40" as="geometry"/>
                </mxCell>
                <mxCell id="34" value="" style="html=1;curved=1;noEdgeStyle=1;orthogonal=1;" edge="1" parent="29" source="30" target="33">
                    <mxGeometry relative="1" as="geometry">
                        <Array as="points">
                            <mxPoint x="152" y="82.5"/>
                            <mxPoint x="178" y="110"/>
                        </Array>
                    </mxGeometry>
                </mxCell>
                <mxCell id="35" value="Static JS and CSS files" style="whiteSpace=wrap;html=1;" vertex="1" parent="29">
                    <mxGeometry x="360" y="55" width="100" height="40" as="geometry"/>
                </mxCell>
                <mxCell id="36" value="" style="html=1;curved=1;noEdgeStyle=1;orthogonal=1;" edge="1" parent="29" source="31" target="35">
                    <mxGeometry relative="1" as="geometry">
                        <Array as="points">
                            <mxPoint x="322" y="40"/>
                            <mxPoint x="348" y="67.5"/>
                        </Array>
                    </mxGeometry>
                </mxCell>
                <mxCell id="37" value="" style="html=1;curved=1;noEdgeStyle=1;orthogonal=1;" edge="1" parent="29" source="33" target="35">
                    <mxGeometry relative="1" as="geometry">
                        <Array as="points">
                            <mxPoint x="322" y="110"/>
                            <mxPoint x="348" y="82.5"/>
                        </Array>
                    </mxGeometry>
                </mxCell>
                <mxCell id="38" value="Allow Remote Connection" style="swimlane;html=1;startSize=20;horizontal=0;childLayout=flowLayout;flowOrientation=west;resizable=0;interRankCellSpacing=50;containerType=tree;fillColor=#dae8fc;strokeColor=#6c8ebf;" vertex="1" parent="1">
                    <mxGeometry x="120" y="760" width="460" height="150" as="geometry"/>
                </mxCell>
                <mxCell id="39" value="ALLOW_HOSTS in settings.py" style="whiteSpace=wrap;html=1;" vertex="1" parent="38">
                    <mxGeometry x="40" y="55" width="100" height="40" as="geometry"/>
                </mxCell>
                <mxCell id="40" value="Specify Hosts" style="whiteSpace=wrap;html=1;" vertex="1" parent="38">
                    <mxGeometry x="190" y="20" width="100" height="40" as="geometry"/>
                </mxCell>
                <mxCell id="41" value="" style="html=1;curved=1;noEdgeStyle=1;orthogonal=1;" edge="1" parent="38" source="39" target="40">
                    <mxGeometry relative="1" as="geometry">
                        <Array as="points">
                            <mxPoint x="152" y="67.5"/>
                            <mxPoint x="178" y="40"/>
                        </Array>
                    </mxGeometry>
                </mxCell>
                <mxCell id="42" value="* for all Hosts" style="whiteSpace=wrap;html=1;" vertex="1" parent="38">
                    <mxGeometry x="190" y="90" width="100" height="40" as="geometry"/>
                </mxCell>
                <mxCell id="43" value="" style="html=1;curved=1;noEdgeStyle=1;orthogonal=1;" edge="1" parent="38" source="39" target="42">
                    <mxGeometry relative="1" as="geometry">
                        <Array as="points">
                            <mxPoint x="152" y="82.5"/>
                            <mxPoint x="178" y="110"/>
                        </Array>
                    </mxGeometry>
                </mxCell>
                <mxCell id="44" value="Becareful with it" style="whiteSpace=wrap;html=1;" vertex="1" parent="38">
                    <mxGeometry x="340" y="55" width="100" height="40" as="geometry"/>
                </mxCell>
                <mxCell id="45" value="" style="html=1;curved=1;noEdgeStyle=1;orthogonal=1;" edge="1" parent="38" source="40" target="44">
                    <mxGeometry relative="1" as="geometry">
                        <Array as="points">
                            <mxPoint x="302" y="40"/>
                            <mxPoint x="328" y="67.5"/>
                        </Array>
                    </mxGeometry>
                </mxCell>
                <mxCell id="46" value="" style="html=1;curved=1;noEdgeStyle=1;orthogonal=1;" edge="1" parent="38" source="42" target="44">
                    <mxGeometry relative="1" as="geometry">
                        <Array as="points">
                            <mxPoint x="302" y="110"/>
                            <mxPoint x="328" y="82.5"/>
                        </Array>
                    </mxGeometry>
                </mxCell>
                <mxCell id="47" value="Routing" style="swimlane;html=1;startSize=20;horizontal=0;childLayout=flowLayout;flowOrientation=west;resizable=0;interRankCellSpacing=50;containerType=tree;fillColor=#d5e8d4;strokeColor=#82b366;" vertex="1" parent="1">
                    <mxGeometry x="120" y="960" width="480" height="152" as="geometry"/>
                </mxCell>
                <mxCell id="48" value="urlpatterns in urls.py" style="whiteSpace=wrap;html=1;" vertex="1" parent="47">
                    <mxGeometry x="40" y="56" width="100" height="40" as="geometry"/>
                </mxCell>
                <mxCell id="49" value="'index.html' &lt;br&gt;--&amp;gt; &lt;br&gt;Page without Args" style="whiteSpace=wrap;html=1;" vertex="1" parent="47">
                    <mxGeometry x="190" y="20" width="100" height="40" as="geometry"/>
                </mxCell>
                <mxCell id="50" value="" style="html=1;curved=1;noEdgeStyle=1;orthogonal=1;" edge="1" parent="47" source="48" target="49">
                    <mxGeometry relative="1" as="geometry">
                        <Array as="points">
                            <mxPoint x="152" y="68.5"/>
                            <mxPoint x="178" y="40"/>
                        </Array>
                    </mxGeometry>
                </mxCell>
                <mxCell id="51" value="'submit/&amp;lt;str:msg&amp;gt;' --&amp;gt;&lt;br&gt;&amp;nbsp;Page with Args" style="whiteSpace=wrap;html=1;" vertex="1" parent="47">
                    <mxGeometry x="190" y="92" width="100" height="40" as="geometry"/>
                </mxCell>
                <mxCell id="52" value="" style="html=1;curved=1;noEdgeStyle=1;orthogonal=1;" edge="1" parent="47" source="48" target="51">
                    <mxGeometry relative="1" as="geometry">
                        <Array as="points">
                            <mxPoint x="152" y="83.5"/>
                            <mxPoint x="178" y="112"/>
                        </Array>
                    </mxGeometry>
                </mxCell>
                <mxCell id="53" value="Generate views to handle the requests" style="whiteSpace=wrap;html=1;" vertex="1" parent="47">
                    <mxGeometry x="340" y="56" width="120" height="40" as="geometry"/>
                </mxCell>
                <mxCell id="54" value="" style="html=1;curved=1;noEdgeStyle=1;orthogonal=1;" edge="1" parent="47" source="49" target="53">
                    <mxGeometry relative="1" as="geometry">
                        <Array as="points">
                            <mxPoint x="302" y="40"/>
                            <mxPoint x="328" y="68.5"/>
                        </Array>
                    </mxGeometry>
                </mxCell>
                <mxCell id="55" value="" style="html=1;curved=1;noEdgeStyle=1;orthogonal=1;" edge="1" parent="47" source="51" target="53">
                    <mxGeometry relative="1" as="geometry">
                        <Array as="points">
                            <mxPoint x="302" y="112"/>
                            <mxPoint x="328" y="83.5"/>
                        </Array>
                    </mxGeometry>
                </mxCell>
                <mxCell id="119" value="Reqest and Response" style="swimlane;horizontal=0;fillColor=#ffe6cc;strokeColor=#d79b00;" vertex="1" parent="1">
                    <mxGeometry x="120" y="1160" width="643" height="561" as="geometry"/>
                </mxCell>
                <mxCell id="71" value="Generate Response" style="swimlane;html=1;startSize=20;horizontal=0;childLayout=flowLayout;flowOrientation=west;resizable=0;interRankCellSpacing=50;containerType=tree;fillColor=#e1d5e7;strokeColor=#9673a6;" vertex="1" parent="119">
                    <mxGeometry x="43" y="131" width="580" height="200" as="geometry"/>
                </mxCell>
                <mxCell id="72" value="Response" style="whiteSpace=wrap;html=1;" vertex="1" parent="71">
                    <mxGeometry x="40" y="80" width="100" height="40" as="geometry"/>
                </mxCell>
                <mxCell id="73" value="Render Page" style="whiteSpace=wrap;html=1;" vertex="1" parent="71">
                    <mxGeometry x="190" y="45" width="100" height="40" as="geometry"/>
                </mxCell>
                <mxCell id="74" value="" style="html=1;curved=1;noEdgeStyle=1;orthogonal=1;" edge="1" parent="71" source="72" target="73">
                    <mxGeometry relative="1" as="geometry">
                        <Array as="points">
                            <mxPoint x="152" y="92.5"/>
                            <mxPoint x="178" y="65"/>
                        </Array>
                    </mxGeometry>
                </mxCell>
                <mxCell id="75" value="HttpResponse" style="whiteSpace=wrap;html=1;" vertex="1" parent="71">
                    <mxGeometry x="190" y="115" width="100" height="40" as="geometry"/>
                </mxCell>
                <mxCell id="76" value="" style="html=1;curved=1;noEdgeStyle=1;orthogonal=1;" edge="1" parent="71" source="72" target="75">
                    <mxGeometry relative="1" as="geometry">
                        <Array as="points">
                            <mxPoint x="152" y="107.5"/>
                            <mxPoint x="178" y="135"/>
                        </Array>
                    </mxGeometry>
                </mxCell>
                <mxCell id="80" value="" style="html=1;curved=1;noEdgeStyle=1;orthogonal=1;" edge="1" target="81" source="73" parent="71">
                    <mxGeometry relative="1" as="geometry">
                        <mxPoint x="2600" y="2767.5" as="sourcePoint"/>
                        <Array as="points">
                            <mxPoint x="302" y="65"/>
                            <mxPoint x="328" y="50"/>
                        </Array>
                    </mxGeometry>
                </mxCell>
                <mxCell id="81" value="def home_page(request):&#10;    return render(request, 'index.html')" style="whiteSpace=wrap;html=1;" vertex="1" parent="71">
                    <mxGeometry x="375" y="20" width="150" height="60" as="geometry"/>
                </mxCell>
                <mxCell id="82" value="" style="html=1;curved=1;noEdgeStyle=1;orthogonal=1;" edge="1" target="83" source="75" parent="71">
                    <mxGeometry relative="1" as="geometry">
                        <mxPoint x="2360" y="2652.5" as="sourcePoint"/>
                        <Array as="points">
                            <mxPoint x="302" y="135"/>
                            <mxPoint x="328" y="145"/>
                        </Array>
                    </mxGeometry>
                </mxCell>
                <mxCell id="83" value="def submit(request, msg):&lt;br&gt;&amp;nbsp; &amp;nbsp; return HttpResponse(json.dumps(dict(**)))" style="whiteSpace=wrap;html=1;" vertex="1" parent="71">
                    <mxGeometry x="340" y="110" width="220" height="70" as="geometry"/>
                </mxCell>
                <mxCell id="108" value="Process" style="swimlane;html=1;startSize=20;horizontal=0;childLayout=flowLayout;flowOrientation=west;resizable=0;interRankCellSpacing=50;containerType=tree;fillColor=#f8cecc;strokeColor=#b85450;" vertex="1" parent="119">
                    <mxGeometry x="43" y="20" width="310" height="80" as="geometry"/>
                </mxCell>
                <mxCell id="109" value="Request Views" style="whiteSpace=wrap;html=1;" vertex="1" parent="108">
                    <mxGeometry x="40" y="20" width="100" height="40" as="geometry"/>
                </mxCell>
                <mxCell id="110" value="Generate Response" style="whiteSpace=wrap;html=1;" vertex="1" parent="108">
                    <mxGeometry x="190" y="20" width="100" height="40" as="geometry"/>
                </mxCell>
                <mxCell id="111" value="" style="html=1;curved=1;noEdgeStyle=1;orthogonal=1;" edge="1" parent="108" source="109" target="110">
                    <mxGeometry relative="1" as="geometry">
                        <Array as="points">
                            <mxPoint x="152" y="40"/>
                            <mxPoint x="178" y="40"/>
                        </Array>
                    </mxGeometry>
                </mxCell>
                <mxCell id="84" value="Request Views" style="swimlane;html=1;startSize=20;horizontal=0;childLayout=flowLayout;flowOrientation=west;resizable=0;interRankCellSpacing=50;containerType=tree;fillColor=#d5e8d4;strokeColor=#82b366;" vertex="1" parent="119">
                    <mxGeometry x="46" y="361" width="524" height="180" as="geometry"/>
                </mxCell>
                <mxCell id="85" value="views.py" style="whiteSpace=wrap;html=1;" vertex="1" parent="84">
                    <mxGeometry x="40" y="70" width="100" height="40" as="geometry"/>
                </mxCell>
                <mxCell id="86" value="path(r'index.html', views.home_page)," style="whiteSpace=wrap;html=1;" vertex="1" parent="84">
                    <mxGeometry x="192.00000000000006" y="35" width="100" height="40" as="geometry"/>
                </mxCell>
                <mxCell id="87" value="" style="html=1;curved=1;noEdgeStyle=1;orthogonal=1;" edge="1" parent="84" source="85" target="86">
                    <mxGeometry relative="1" as="geometry">
                        <Array as="points">
                            <mxPoint x="152" y="82.5"/>
                            <mxPoint x="178" y="55"/>
                        </Array>
                    </mxGeometry>
                </mxCell>
                <mxCell id="88" value="path(r'submit//', views.submit)," style="whiteSpace=wrap;html=1;" vertex="1" parent="84">
                    <mxGeometry x="192" y="105" width="100" height="40" as="geometry"/>
                </mxCell>
                <mxCell id="89" value="" style="html=1;curved=1;noEdgeStyle=1;orthogonal=1;" edge="1" parent="84" source="85" target="88">
                    <mxGeometry relative="1" as="geometry">
                        <Array as="points">
                            <mxPoint x="152" y="97.5"/>
                            <mxPoint x="178" y="125"/>
                        </Array>
                    </mxGeometry>
                </mxCell>
                <mxCell id="93" value="" style="html=1;curved=1;noEdgeStyle=1;orthogonal=1;" edge="1" target="94" source="86" parent="84">
                    <mxGeometry relative="1" as="geometry">
                        <mxPoint x="1570" y="1563" as="sourcePoint"/>
                        <Array as="points">
                            <mxPoint x="306" y="55"/>
                            <mxPoint x="332" y="40"/>
                        </Array>
                    </mxGeometry>
                </mxCell>
                <mxCell id="94" value="&#10;&#10;&lt;span style=&quot;color: rgb(0, 0, 0); font-family: helvetica; font-size: 12px; font-style: normal; font-weight: 400; letter-spacing: normal; text-align: center; text-indent: 0px; text-transform: none; word-spacing: 0px; background-color: rgb(248, 249, 250); display: inline; float: none;&quot;&gt;def home_page(request):&lt;/span&gt;&#10;&#10;" style="whiteSpace=wrap;html=1;" vertex="1" parent="84">
                    <mxGeometry x="344" y="20" width="160" height="40" as="geometry"/>
                </mxCell>
                <mxCell id="95" value="" style="html=1;curved=1;noEdgeStyle=1;orthogonal=1;" edge="1" target="96" source="88" parent="84">
                    <mxGeometry relative="1" as="geometry">
                        <mxPoint x="1530" y="1558" as="sourcePoint"/>
                        <Array as="points">
                            <mxPoint x="306" y="125"/>
                            <mxPoint x="332" y="140"/>
                        </Array>
                    </mxGeometry>
                </mxCell>
                <mxCell id="96" value="&#10;&#10;&lt;span style=&quot;color: rgb(0, 0, 0); font-family: helvetica; font-size: 12px; font-style: normal; font-weight: 400; letter-spacing: normal; text-align: center; text-indent: 0px; text-transform: none; word-spacing: 0px; background-color: rgb(248, 249, 250); display: inline; float: none;&quot;&gt;def submit(request, msg):&lt;/span&gt;&#10;&#10;" style="whiteSpace=wrap;html=1;" vertex="1" parent="84">
                    <mxGeometry x="344" y="120" width="160" height="40" as="geometry"/>
                </mxCell>
            </root>
        </mxGraphModel>
    </diagram>
</mxfile>